<svg width="211" height="36" viewBox="0 0 211 36" fill="none" xmlns="http://www.w3.org/2000/svg">
<path fill-rule="evenodd" clip-rule="evenodd" d="M21.4806 0.55336C21.2794 0.21267 20.9082 0.00200266 20.5057 1.4197e-05C20.1032 -0.00197414 19.7299 0.205015 19.5251 0.543699L15.845 6.63066C15.5269 7.15688 15.7054 7.83553 16.2438 8.14648C16.7822 8.45743 17.4766 8.28292 17.7947 7.7567L20.4886 3.30095L37.9064 32.7866H14.2722L14.2722 23.3043C14.924 24.1652 15.5719 24.8724 16.2578 25.447C17.7102 26.664 19.2602 27.2291 21.1774 27.5172C21.7955 27.6101 22.3736 27.1956 22.4686 26.5915C22.5636 25.9873 22.1396 25.4223 21.5215 25.3294C19.9044 25.0865 18.7836 24.648 17.7318 23.7666C16.6729 22.8794 15.6208 21.4918 14.2722 19.2111V17.7707C14.924 18.6316 15.5719 19.3388 16.2578 19.9135C17.7102 21.1304 19.2602 21.6955 21.1774 21.9836C21.7955 22.0765 22.3736 21.662 22.4686 21.0579C22.5636 20.4538 22.1396 19.8887 21.5215 19.7959C19.9044 19.5529 18.7836 19.1144 17.7318 18.233C16.6729 17.3458 15.6208 15.9582 14.2722 13.6775V12.7903C14.924 13.6512 15.5719 14.3583 16.2578 14.933C17.7102 16.15 19.2602 16.7151 21.1774 17.0032C21.7955 17.096 22.3736 16.6816 22.4686 16.0774C22.5636 15.4733 22.1396 14.9083 21.5215 14.8154C19.9044 14.5724 18.7836 14.1339 17.7318 13.2526C16.6369 12.3351 15.5492 10.8827 14.1334 8.46087L14.1261 8.44815C14.0763 8.36169 14.0142 8.28121 13.9407 8.20944C13.8678 8.13808 13.786 8.07777 13.6982 8.02925C13.619 7.98528 13.5338 7.95038 13.4442 7.92599C13.3439 7.89857 13.2415 7.88528 13.1399 7.88538C13.0412 7.88529 12.9418 7.89783 12.8442 7.92368C12.7476 7.94915 12.6561 7.98681 12.5715 8.03487C12.4875 8.08241 12.4092 8.14085 12.339 8.20952C12.2704 8.27654 12.2117 8.35116 12.1637 8.43115C12.1574 8.44154 12.1513 8.45203 12.1454 8.46264C10.7301 10.8834 9.64267 12.3354 8.54802 13.2526C7.49617 14.1339 6.37541 14.5724 4.75834 14.8154C4.14023 14.9083 3.71617 15.4733 3.8112 16.0774C3.90622 16.6816 4.48433 17.096 5.10245 17.0032C7.0196 16.7151 8.56965 16.15 10.022 14.933C10.7079 14.3583 11.3558 13.6512 12.0075 12.7903V13.6776C10.659 15.9583 9.60686 17.3458 8.54802 18.233C7.49617 19.1144 6.37541 19.5529 4.75834 19.7959C4.14023 19.8887 3.71617 20.4538 3.8112 21.0579C3.90622 21.662 4.48433 22.0765 5.10245 21.9836C7.0196 21.6955 8.56965 21.1304 10.022 19.9135C10.7079 19.3388 11.3558 18.6317 12.0075 17.7708V19.2112C10.659 21.4919 9.60686 22.8794 8.54802 23.7666C7.49617 24.648 6.37541 25.0865 4.75834 25.3294C4.14023 25.4223 3.71617 25.9873 3.8112 26.5915C3.90622 27.1956 4.48433 27.6101 5.10245 27.5172C7.0196 27.2291 8.56965 26.664 10.022 25.447C10.7079 24.8724 11.3558 24.1653 12.0075 23.3044V32.7866H3.14514L4.76566 30.1793C5.09035 29.657 4.92028 28.9762 4.3858 28.6589C3.85131 28.3415 3.15482 28.5078 2.83013 29.0301L0.164578 33.3187C-0.0478046 33.6604 -0.0551157 34.0875 0.145452 34.4359C0.34602 34.7844 0.723283 35 1.13235 35H39.8677C40.2722 35 40.646 34.7891 40.8483 34.4466C41.0506 34.1042 41.0506 33.6823 40.8483 33.3399L21.4806 0.55336Z" fill="#45536D"/>
<path d="M61.488 21.168C61.432 21.1307 61.2547 21.0747 60.956 21C60.676 20.9253 60.3307 20.8507 59.92 20.776C59.5093 20.7013 59.08 20.664 58.632 20.664C57.008 20.664 55.7573 21.1867 54.88 22.232C54.0027 23.2773 53.564 24.7707 53.564 26.712C53.564 28.672 54.012 30.184 54.908 31.248C55.804 32.312 57.0453 32.844 58.632 32.844C59.0987 32.844 59.5373 32.788 59.948 32.676C60.3587 32.564 60.704 32.4613 60.984 32.368C61.264 32.256 61.432 32.1907 61.488 32.172L62.076 29.736L64.792 30.352L63.952 34.328C63.952 34.328 63.728 34.4307 63.28 34.636C62.832 34.8413 62.2067 35.0467 61.404 35.252C60.6013 35.4573 59.6773 35.56 58.632 35.56C56.952 35.56 55.4773 35.2427 54.208 34.608C52.9573 33.9547 51.9773 32.9747 51.268 31.668C50.5587 30.3427 50.204 28.6907 50.204 26.712C50.204 24.8827 50.5493 23.3147 51.24 22.008C51.9307 20.7013 52.9107 19.7027 54.18 19.012C55.4493 18.3027 56.924 17.948 58.604 17.948C59.78 17.948 60.7693 18.0693 61.572 18.312C62.3933 18.536 63.0093 18.7693 63.42 19.012C63.8307 19.2547 64.036 19.376 64.036 19.376L64.82 23.324L62.076 23.94L61.488 21.168ZM67.1291 18.508L74.3251 18.536V21.336H72.7571L72.7291 30.856L80.2611 18.508H85.8611V21.336H83.4811V32.172H85.8611V35H78.6931V32.172H80.2611V22.652L72.7291 35H67.1011V32.172H69.5091V21.336H67.1291V18.508ZM88.2112 18.508L95.4352 18.536V21.336H93.8392L93.8112 25.256H100.867L100.895 21.336H99.2712V18.508H106.495V21.336H104.143L104.115 32.172H106.495V35H99.2992V32.172H100.867V28.056H93.8112V32.172H95.3792V35H88.1832V32.172H90.5632L90.5912 21.336H88.2112V18.508ZM108.856 18.508L116.052 18.536V21.336H114.484L114.456 30.856L121.988 18.508H127.588V21.336H125.208V32.172H127.588V35H120.42V32.172H121.988V22.652L114.456 35H108.828V32.172H111.236V21.336H108.856V18.508ZM129.938 18.508L137.134 18.536V21.336H135.566L135.538 30.856L143.07 18.508H148.67V21.336H146.29V32.172H148.67V35H141.502V32.172H143.07V22.652L135.538 35H129.91V32.172H132.318V21.336H129.938V18.508ZM139.598 16.94C138.16 16.94 136.975 16.6413 136.042 16.044C135.127 15.4467 134.52 14.5787 134.222 13.44L136.742 13.104C137.078 14.392 138.03 15.036 139.598 15.036C141.184 15.036 142.146 14.392 142.482 13.104L145.002 13.44C144.703 14.5787 144.087 15.4467 143.154 16.044C142.22 16.6413 141.035 16.94 139.598 16.94ZM158.783 35.476C158.652 35.476 158.531 35.476 158.419 35.476C158.307 35.476 158.055 35.4573 157.663 35.42V32.396C158.727 32.396 159.539 32.2373 160.099 31.92C160.659 31.6027 161.06 31.052 161.303 30.268C161.564 29.4653 161.742 28.336 161.835 26.88L162.227 21.308H159.707V18.48H174.995V21.308H172.307V32.172H174.967V35H167.267V32.172H169.059V21.308H165.055L164.551 27.636C164.458 29.1853 164.215 30.548 163.823 31.724C163.45 32.8813 162.862 33.796 162.059 34.468C161.275 35.1213 160.183 35.4573 158.783 35.476ZM183.115 35.588C182.593 35.588 182.079 35.5413 181.575 35.448C181.071 35.3733 180.427 35.224 179.643 35L180.455 32.228C180.903 32.4147 181.342 32.5547 181.771 32.648C182.219 32.7413 182.63 32.788 183.003 32.788C183.451 32.788 183.787 32.676 184.011 32.452C184.235 32.228 184.459 31.8173 184.683 31.22L179.055 21.336H176.507V18.508H184.095V21.336H182.555L186.055 27.804L188.463 21.336H186.783V18.48H194.399V21.336H191.599L187.287 32.032C186.821 33.208 186.289 34.0947 185.691 34.692C185.094 35.2893 184.235 35.588 183.115 35.588ZM195.978 18.508H208.186L209.67 23.38L206.982 24.22L206.058 21.336H201.858V32.172H204.714V35H195.95V32.172H198.638V21.336H195.978V18.508Z" fill="#45536D"/>
</svg>
